HIERARCHY
ROOT Hips
{
	OFFSET -0.001795 -0.223333 0.028219
	CHANNELS 6 Xposition Yposition Zposition Zrotation Yrotation Xrotation 
	JOINT LeftUpLeg
	{
		OFFSET 0.069520 -0.091406 -0.006815
		CHANNELS 3 Zrotation Yrotation Xrotation
		JOINT LeftLeg
		{
			OFFSET 0.034277 -0.375199 -0.004496
			CHANNELS 3 Zrotation Yrotation Xrotation
			JOINT LeftFoot
			{
				OFFSET -0.013596 -0.397961 -0.043693
				CHANNELS 3 Zrotation Yrotation Xrotation
				JOINT LeftToe
				{
					OFFSET 0.026358 -0.055791 0.119288
					CHANNELS 3 Zrotation Yrotation Xrotation
					End Site
					{
						OFFSET 0.000000 0.000000 0.000000
					}
				}
			}
		}
	}
	JOINT RightUpLeg
	{
		OFFSET -0.067670 -0.090522 -0.004320
		CHANNELS 3 Zrotation Yrotation Xrotation
		JOINT RightLeg
		{
			OFFSET -0.038290 -0.382569 -0.008850
			CHANNELS 3 Zrotation Yrotation Xrotation
			JOINT RightFoot
			{
				OFFSET 0.015774 -0.398415 -0.042312
				CHANNELS 3 Zrotation Yrotation Xrotation
				JOINT RightToe
				{
					OFFSET -0.025372 -0.048144 0.123348
					CHANNELS 3 Zrotation Yrotation Xrotation
					End Site
					{
						OFFSET 0.000000 0.000000 0.000000
					}
				}
			}
		}
	}
	JOINT Spine
	{
		OFFSET -0.002533 0.108963 -0.026696
		CHANNELS 3 Zrotation Yrotation Xrotation
		JOINT Spine1
		{
			OFFSET 0.005487 0.135180 0.001092
			CHANNELS 3 Zrotation Yrotation Xrotation
			JOINT Spine2
			{
				OFFSET 0.001457 0.052922 0.025425
				CHANNELS 3 Zrotation Yrotation Xrotation
				JOINT Neck
				{
					OFFSET -0.002778 0.213870 -0.042857
					CHANNELS 3 Zrotation Yrotation Xrotation
					JOINT Head
					{
						OFFSET 0.005152 0.064970 0.051349
						CHANNELS 3 Zrotation Yrotation Xrotation
						End Site
						{
							OFFSET 0.000000 0.000000 0.000000
						}
					}
				}
				JOINT LeftShoulder
				{
					OFFSET 0.078845 0.121749 -0.034090
					CHANNELS 3 Zrotation Yrotation Xrotation
					JOINT LeftArm
					{
						OFFSET 0.090977 0.030469 -0.008868
						CHANNELS 3 Zrotation Yrotation Xrotation
						JOINT LeftForeArm
						{
							OFFSET 0.259612 -0.012772 -0.027456
							CHANNELS 3 Zrotation Yrotation Xrotation
							JOINT LeftHand
							{
								OFFSET 0.249234 0.008986 -0.001171
								CHANNELS 3 Zrotation Yrotation Xrotation
								End Site
								{
									OFFSET 0.000000 0.000000 0.000000
								}
							}
						}
					}
				}
				JOINT RightShoulder
				{
					OFFSET -0.081759 0.118833 -0.038615
					CHANNELS 3 Zrotation Yrotation Xrotation
					JOINT RightArm
					{
						OFFSET -0.096012 0.032551 -0.009143
						CHANNELS 3 Zrotation Yrotation Xrotation
						JOINT RightForeArm
						{
							OFFSET -0.253742 -0.013329 -0.021401
							CHANNELS 3 Zrotation Yrotation Xrotation
							JOINT RightHand
							{
								OFFSET -0.255298 0.007772 -0.005559
								CHANNELS 3 Zrotation Yrotation Xrotation
								End Site
								{
									OFFSET 0.000000 0.000000 0.000000
								}
							}
						}
					}
				}
			}
		}
	}
}
MOTION
Frames: 10
Frame Time: 0.050000
-0.002478 0.829973 0.018929 -3.322006 -10.007863 4.253073 15.602699 -0.040901 24.542606 -8.692851 0.700488 -33.353011 86.512484 46.187744 95.653171 0.000000 0.000000 0.000000 -22.641147 2.892507 9.566617 27.065774 3.699719 -24.390954 -70.767532 -56.506374 66.655342 0.000000 0.000000 0.000000 4.565898 1.133468 -12.112633 1.255222 0.258407 -27.912914 1.900895 8.956291 37.699993 14.124107 -0.870455 -62.843645 0.000000 0.000000 0.000000 -22.949625 5.615689 -4.622442 -44.943669 -7.854068 -6.365910 -39.645722 44.054264 -17.261306 0.000000 0.000000 0.000000 25.043910 -11.955629 -7.858433 43.626091 -11.423510 -11.606807 126.868649 -55.724412 -92.736189 0.000000 0.000000 0.000000 
-0.002277 0.829480 0.020998 -2.911842 -8.193534 6.638550 15.406969 -0.321004 24.865716 -8.834718 0.566805 -40.605754 81.876236 41.332949 99.499526 0.000000 0.000000 0.000000 -21.896180 3.163909 13.574220 23.474674 5.492085 -37.381059 -78.727879 -49.852777 85.468372 0.000000 0.000000 0.000000 2.778051 1.129259 -14.390269 3.264607 0.655412 -36.928007 1.802041 6.654024 48.662785 9.615653 1.694572 -79.568101 0.000000 0.000000 0.000000 -24.483311 5.468763 -3.756379 -45.382569 -10.461933 -7.204913 -56.384509 51.566652 -27.822197 0.000000 0.000000 0.000000 23.107343 -12.745388 -7.879253 44.857523 -11.277465 -13.226204 161.155896 -55.498642 -142.322347 0.000000 0.000000 0.000000 
-0.001624 0.826133 0.021783 -3.104785 -8.176071 8.325339 15.521699 -0.388885 25.287715 -9.094504 0.594667 -44.892771 80.873805 39.534920 101.770176 0.000000 0.000000 0.000000 -22.588493 3.668168 15.639176 23.261240 6.896830 -44.386436 -79.828375 -45.618436 93.245843 0.000000 0.000000 0.000000 2.752425 1.320934 -16.402589 3.593736 0.887768 -39.649049 2.471957 6.881157 53.155738 10.272772 2.094403 -85.420111 0.000000 0.000000 0.000000 -24.126179 7.629448 -4.989568 -46.880597 -11.563514 -7.636845 -78.553665 56.604869 -44.210162 0.000000 0.000000 0.000000 23.087759 -14.519581 -8.735969 45.969821 -12.932597 -14.717693 172.492219 -52.232698 -159.693948 0.000000 0.000000 0.000000 
-0.000633 0.824938 0.021894 -2.859327 -7.658465 9.552491 15.076552 -0.412294 24.678484 -8.180384 0.838793 -47.186107 79.751504 36.670950 105.797764 0.000000 0.000000 0.000000 -22.749536 3.992920 17.826159 22.392640 7.632415 -50.140160 -83.420995 -42.766359 100.250673 0.000000 0.000000 0.000000 1.876789 1.331891 -17.829155 3.992908 1.146106 -42.672910 2.561714 5.876315 57.265275 9.316869 2.441718 -89.130632 0.000000 0.000000 0.000000 -23.674949 8.490174 -5.090060 -48.750414 -11.191978 -8.670393 -96.522981 57.416002 -56.902428 0.000000 0.000000 0.000000 22.691582 -14.596837 -8.631952 48.227542 -14.150704 -16.442328 179.385225 -48.201708 -171.198949 0.000000 0.000000 0.000000 
0.000557 0.823363 0.021184 -2.775913 -7.701365 9.518424 15.659816 -0.526511 24.149275 -7.888984 0.940836 -47.230809 80.610321 31.904689 114.458433 0.000000 0.000000 0.000000 -23.486435 4.267509 18.412489 23.045056 8.117408 -51.307962 -91.946921 -42.206849 105.676550 0.000000 0.000000 0.000000 1.487658 1.362186 -18.606870 4.616103 1.117763 -42.795583 3.117249 6.457125 58.580586 10.196874 2.440041 -90.928336 0.000000 0.000000 0.000000 -23.671036 9.221403 -5.732417 -49.346049 -11.043725 -8.979257 -111.142627 56.251431 -68.210364 0.000000 0.000000 0.000000 23.283522 -15.089202 -8.748796 49.322724 -14.432270 -17.147803 -176.337091 -44.800226 -179.121313 0.000000 0.000000 0.000000 
0.002156 0.822629 0.019369 -2.569254 -6.345195 9.269891 16.472414 -0.869997 23.396222 -8.587953 0.479419 -47.913556 83.723024 28.332478 120.081928 0.000000 0.000000 0.000000 -23.713914 4.238017 19.435197 22.659886 7.926084 -53.100226 -99.621985 -39.508566 112.693144 0.000000 0.000000 0.000000 0.263390 1.089324 -17.949233 5.155489 1.406455 -46.421742 3.147223 5.229251 62.010582 8.060114 2.692550 -93.181992 0.000000 0.000000 0.000000 -22.748220 9.582010 -5.641421 -50.922525 -11.263307 -9.598860 -116.889688 56.989228 -73.323668 0.000000 0.000000 0.000000 22.298082 -15.043258 -8.464105 51.404035 -13.827091 -18.023671 -175.001904 -42.655564 179.135072 0.000000 0.000000 0.000000 
0.004222 0.820746 0.017005 -2.533360 -6.114204 8.867991 16.660815 -0.937970 23.877994 -8.339730 0.503517 -49.166062 83.407155 25.445515 124.315401 0.000000 0.000000 0.000000 -24.485136 4.571046 20.742225 23.720969 8.308704 -53.366949 -101.386740 -39.787625 113.149804 0.000000 0.000000 0.000000 0.048509 1.108333 -18.747743 4.549295 1.384775 -46.261741 4.119758 4.779172 62.177774 7.019846 2.751731 -93.457345 0.000000 0.000000 0.000000 -22.179077 8.612453 -4.915001 -51.696511 -11.452109 -9.591375 -118.706096 56.423076 -74.210625 0.000000 0.000000 0.000000 20.864231 -14.617598 -7.954122 53.120037 -13.750871 -18.480231 -173.740371 -40.129690 175.598854 0.000000 0.000000 0.000000 
0.006815 0.818630 0.015140 -2.274003 -5.167966 7.604667 17.454288 -1.212188 24.144969 -9.153841 -0.002447 -49.918387 86.841576 20.761656 130.559660 0.000000 0.000000 0.000000 -25.055150 4.609754 21.647856 23.734405 8.092968 -53.671519 -103.644805 -38.274646 115.899969 0.000000 0.000000 0.000000 -0.301903 0.987914 -18.410805 3.473116 1.433403 -47.461709 5.107130 3.311342 63.362516 3.220047 2.880024 -94.585627 0.000000 0.000000 0.000000 -22.465135 7.386931 -3.952278 -51.425908 -13.452958 -8.972126 -117.134812 58.440650 -74.727618 0.000000 0.000000 0.000000 20.581436 -13.629794 -7.359245 53.792809 -11.041192 -17.788802 -171.132304 -39.469497 168.785225 0.000000 0.000000 0.000000 
0.010207 0.817914 0.014913 -2.159435 -4.664839 5.817089 17.727026 -1.310074 24.870956 -9.800374 -0.376023 -49.266656 92.644290 18.869234 132.418200 0.000000 0.000000 0.000000 -25.956357 4.893451 23.188526 24.845915 8.366779 -53.442135 -101.390418 -38.876424 114.637770 0.000000 0.000000 0.000000 -0.074504 0.969243 -18.158097 2.950477 1.296492 -46.179323 5.757133 3.402980 62.351927 2.061562 2.704609 -93.883407 0.000000 0.000000 0.000000 -24.801521 4.180577 -2.262449 -47.674451 -15.727475 -7.769734 -108.721987 58.950333 -68.963456 0.000000 0.000000 0.000000 21.295869 -11.851073 -6.118283 51.721214 -7.065637 -15.783036 -168.454715 -39.512187 161.190737 0.000000 0.000000 0.000000 
0.014055 0.816708 0.016380 -1.884504 -4.314445 3.510141 18.257977 -1.409528 25.163517 -11.704775 -0.992383 -45.793479 102.484708 19.153415 131.405000 0.000000 0.000000 0.000000 -26.761217 5.047400 24.039253 25.662780 8.005475 -50.607086 -101.271731 -42.139061 110.922328 0.000000 0.000000 0.000000 0.272557 0.977848 -17.928112 2.778251 0.917194 -41.272160 5.905291 4.710913 56.733876 0.864650 2.590380 -89.116084 0.000000 0.000000 0.000000 -25.712813 2.326303 -2.012706 -45.278496 -15.319550 -6.602049 -91.174487 63.046370 -60.778298 0.000000 0.000000 0.000000 22.540531 -10.362446 -5.238846 48.623296 -4.885911 -13.394806 -156.770572 -40.848709 132.618639 0.000000 0.000000 0.000000 
